<mxfile host="app.diagrams.net" agent="Mozilla/5.0 (Windows NT 10.0; Win64; x64) AppleWebKit/537.36 (KHTML, like Gecko) Chrome/129.0.0.0 Safari/537.36" version="24.7.16">
  <diagram name="Page-1" id="bzFrpl2pj5LAW_aKo6UX">
    <mxGraphModel dx="1050" dy="522" grid="1" gridSize="10" guides="1" tooltips="1" connect="1" arrows="1" fold="1" page="1" pageScale="1" pageWidth="1169" pageHeight="1654" math="0" shadow="0">
      <root>
        <mxCell id="0" />
        <mxCell id="1" parent="0" />
        <mxCell id="9BoYEC_utU_tpTVn1mRY-117" value="Benefits" style="rounded=0;whiteSpace=wrap;html=1;" vertex="1" parent="1">
          <mxGeometry x="250" y="50" width="90" height="40" as="geometry" />
        </mxCell>
        <mxCell id="9BoYEC_utU_tpTVn1mRY-118" value="&lt;u&gt;BenefitsID&lt;/u&gt;" style="ellipse;whiteSpace=wrap;html=1;" vertex="1" parent="1">
          <mxGeometry x="360" width="80" height="50" as="geometry" />
        </mxCell>
        <mxCell id="9BoYEC_utU_tpTVn1mRY-119" value="Validity Date&amp;nbsp;" style="ellipse;whiteSpace=wrap;html=1;" vertex="1" parent="1">
          <mxGeometry x="140" y="10" width="80" height="50" as="geometry" />
        </mxCell>
        <mxCell id="9BoYEC_utU_tpTVn1mRY-120" value="Status" style="ellipse;whiteSpace=wrap;html=1;" vertex="1" parent="1">
          <mxGeometry x="360" y="90" width="80" height="50" as="geometry" />
        </mxCell>
        <mxCell id="9BoYEC_utU_tpTVn1mRY-121" value="Description" style="ellipse;whiteSpace=wrap;html=1;" vertex="1" parent="1">
          <mxGeometry x="140" y="90" width="80" height="50" as="geometry" />
        </mxCell>
        <mxCell id="9BoYEC_utU_tpTVn1mRY-122" value="Active" style="ellipse;whiteSpace=wrap;html=1;" vertex="1" parent="1">
          <mxGeometry x="440" y="140" width="80" height="50" as="geometry" />
        </mxCell>
        <mxCell id="9BoYEC_utU_tpTVn1mRY-123" value="Expired" style="ellipse;whiteSpace=wrap;html=1;" vertex="1" parent="1">
          <mxGeometry x="305" y="150" width="80" height="50" as="geometry" />
        </mxCell>
        <mxCell id="9BoYEC_utU_tpTVn1mRY-124" value="" style="endArrow=none;html=1;rounded=0;entryX=0;entryY=1;entryDx=0;entryDy=0;exitX=0.7;exitY=0.088;exitDx=0;exitDy=0;exitPerimeter=0;" edge="1" parent="1" source="9BoYEC_utU_tpTVn1mRY-123" target="9BoYEC_utU_tpTVn1mRY-120">
          <mxGeometry width="50" height="50" relative="1" as="geometry">
            <mxPoint x="420" y="280" as="sourcePoint" />
            <mxPoint x="470" y="230" as="targetPoint" />
          </mxGeometry>
        </mxCell>
        <mxCell id="9BoYEC_utU_tpTVn1mRY-125" value="" style="endArrow=none;html=1;rounded=0;exitX=1;exitY=0;exitDx=0;exitDy=0;entryX=0;entryY=1;entryDx=0;entryDy=0;" edge="1" parent="1" source="9BoYEC_utU_tpTVn1mRY-121" target="9BoYEC_utU_tpTVn1mRY-117">
          <mxGeometry width="50" height="50" relative="1" as="geometry">
            <mxPoint x="220" y="110" as="sourcePoint" />
            <mxPoint x="270" y="60" as="targetPoint" />
          </mxGeometry>
        </mxCell>
        <mxCell id="9BoYEC_utU_tpTVn1mRY-126" value="" style="endArrow=none;html=1;rounded=0;entryX=1;entryY=1;entryDx=0;entryDy=0;exitX=0.375;exitY=0;exitDx=0;exitDy=0;exitPerimeter=0;" edge="1" parent="1" source="9BoYEC_utU_tpTVn1mRY-122" target="9BoYEC_utU_tpTVn1mRY-120">
          <mxGeometry width="50" height="50" relative="1" as="geometry">
            <mxPoint x="480" y="210" as="sourcePoint" />
            <mxPoint x="530" y="160" as="targetPoint" />
          </mxGeometry>
        </mxCell>
        <mxCell id="9BoYEC_utU_tpTVn1mRY-127" value="" style="endArrow=none;html=1;rounded=0;entryX=0;entryY=0.5;entryDx=0;entryDy=0;exitX=1;exitY=0;exitDx=0;exitDy=0;" edge="1" parent="1" source="9BoYEC_utU_tpTVn1mRY-117" target="9BoYEC_utU_tpTVn1mRY-118">
          <mxGeometry width="50" height="50" relative="1" as="geometry">
            <mxPoint x="390" y="40" as="sourcePoint" />
            <mxPoint x="440" y="-10" as="targetPoint" />
          </mxGeometry>
        </mxCell>
        <mxCell id="9BoYEC_utU_tpTVn1mRY-128" value="" style="endArrow=none;html=1;rounded=0;entryX=0;entryY=0;entryDx=0;entryDy=0;exitX=1;exitY=0.664;exitDx=0;exitDy=0;exitPerimeter=0;" edge="1" parent="1" source="9BoYEC_utU_tpTVn1mRY-119" target="9BoYEC_utU_tpTVn1mRY-117">
          <mxGeometry width="50" height="50" relative="1" as="geometry">
            <mxPoint x="200" y="80" as="sourcePoint" />
            <mxPoint x="250" y="30" as="targetPoint" />
          </mxGeometry>
        </mxCell>
        <mxCell id="9BoYEC_utU_tpTVn1mRY-129" value="" style="endArrow=none;html=1;rounded=0;entryX=0.04;entryY=0.184;entryDx=0;entryDy=0;entryPerimeter=0;exitX=1;exitY=1;exitDx=0;exitDy=0;" edge="1" parent="1" source="9BoYEC_utU_tpTVn1mRY-117" target="9BoYEC_utU_tpTVn1mRY-120">
          <mxGeometry width="50" height="50" relative="1" as="geometry">
            <mxPoint x="370" y="170" as="sourcePoint" />
            <mxPoint x="420" y="120" as="targetPoint" />
          </mxGeometry>
        </mxCell>
        <mxCell id="9BoYEC_utU_tpTVn1mRY-130" value="Points Group" style="rounded=0;whiteSpace=wrap;html=1;" vertex="1" parent="1">
          <mxGeometry x="80" y="280" width="90" height="40" as="geometry" />
        </mxCell>
        <mxCell id="9BoYEC_utU_tpTVn1mRY-131" value="Amount" style="ellipse;whiteSpace=wrap;html=1;" vertex="1" parent="1">
          <mxGeometry y="340" width="80" height="50" as="geometry" />
        </mxCell>
        <mxCell id="9BoYEC_utU_tpTVn1mRY-132" value="" style="endArrow=none;html=1;rounded=0;exitX=0.5;exitY=0;exitDx=0;exitDy=0;entryX=0.25;entryY=1;entryDx=0;entryDy=0;" edge="1" parent="1" source="9BoYEC_utU_tpTVn1mRY-131" target="9BoYEC_utU_tpTVn1mRY-130">
          <mxGeometry width="50" height="50" relative="1" as="geometry">
            <mxPoint x="-80" y="450" as="sourcePoint" />
            <mxPoint x="-30" y="400" as="targetPoint" />
          </mxGeometry>
        </mxCell>
        <mxCell id="9BoYEC_utU_tpTVn1mRY-133" value="Exclusive offer" style="rounded=0;whiteSpace=wrap;html=1;" vertex="1" parent="1">
          <mxGeometry x="225" y="280" width="90" height="40" as="geometry" />
        </mxCell>
        <mxCell id="9BoYEC_utU_tpTVn1mRY-134" value="Internet Giga bytes" style="ellipse;whiteSpace=wrap;html=1;" vertex="1" parent="1">
          <mxGeometry x="130" y="350" width="80" height="50" as="geometry" />
        </mxCell>
        <mxCell id="9BoYEC_utU_tpTVn1mRY-135" value="number of SMS" style="ellipse;whiteSpace=wrap;html=1;" vertex="1" parent="1">
          <mxGeometry x="230" y="340" width="80" height="50" as="geometry" />
        </mxCell>
        <mxCell id="9BoYEC_utU_tpTVn1mRY-136" value="&amp;nbsp;Call minutes" style="ellipse;whiteSpace=wrap;html=1;" vertex="1" parent="1">
          <mxGeometry x="320" y="340" width="80" height="50" as="geometry" />
        </mxCell>
        <mxCell id="9BoYEC_utU_tpTVn1mRY-137" value="" style="endArrow=none;html=1;rounded=0;exitX=0.735;exitY=0.032;exitDx=0;exitDy=0;exitPerimeter=0;entryX=0.117;entryY=0.993;entryDx=0;entryDy=0;entryPerimeter=0;" edge="1" parent="1" source="9BoYEC_utU_tpTVn1mRY-134" target="9BoYEC_utU_tpTVn1mRY-133">
          <mxGeometry width="50" height="50" relative="1" as="geometry">
            <mxPoint x="190" y="460" as="sourcePoint" />
            <mxPoint x="240" y="410" as="targetPoint" />
          </mxGeometry>
        </mxCell>
        <mxCell id="9BoYEC_utU_tpTVn1mRY-138" value="" style="endArrow=none;html=1;rounded=0;exitX=0.42;exitY=0.048;exitDx=0;exitDy=0;exitPerimeter=0;entryX=0.593;entryY=1.04;entryDx=0;entryDy=0;entryPerimeter=0;" edge="1" parent="1" source="9BoYEC_utU_tpTVn1mRY-135" target="9BoYEC_utU_tpTVn1mRY-133">
          <mxGeometry width="50" height="50" relative="1" as="geometry">
            <mxPoint x="240" y="460" as="sourcePoint" />
            <mxPoint x="290" y="410" as="targetPoint" />
          </mxGeometry>
        </mxCell>
        <mxCell id="9BoYEC_utU_tpTVn1mRY-139" value="" style="endArrow=none;html=1;rounded=0;exitX=0.27;exitY=0.096;exitDx=0;exitDy=0;exitPerimeter=0;entryX=1;entryY=1;entryDx=0;entryDy=0;" edge="1" parent="1" source="9BoYEC_utU_tpTVn1mRY-136" target="9BoYEC_utU_tpTVn1mRY-133">
          <mxGeometry width="50" height="50" relative="1" as="geometry">
            <mxPoint x="390" y="440" as="sourcePoint" />
            <mxPoint x="440" y="390" as="targetPoint" />
          </mxGeometry>
        </mxCell>
        <mxCell id="9BoYEC_utU_tpTVn1mRY-140" value="Cashback" style="rounded=0;whiteSpace=wrap;html=1;" vertex="1" parent="1">
          <mxGeometry x="480" y="280" width="90" height="40" as="geometry" />
        </mxCell>
        <mxCell id="9BoYEC_utU_tpTVn1mRY-141" value="Amount" style="ellipse;whiteSpace=wrap;html=1;" vertex="1" parent="1">
          <mxGeometry x="420" y="340" width="80" height="50" as="geometry" />
        </mxCell>
        <mxCell id="9BoYEC_utU_tpTVn1mRY-142" value="" style="endArrow=none;html=1;rounded=0;exitX=0.5;exitY=0;exitDx=0;exitDy=0;entryX=-0.02;entryY=0.893;entryDx=0;entryDy=0;entryPerimeter=0;" edge="1" parent="1" source="9BoYEC_utU_tpTVn1mRY-141" target="9BoYEC_utU_tpTVn1mRY-140">
          <mxGeometry width="50" height="50" relative="1" as="geometry">
            <mxPoint x="560" y="460" as="sourcePoint" />
            <mxPoint x="610" y="410" as="targetPoint" />
          </mxGeometry>
        </mxCell>
        <mxCell id="9BoYEC_utU_tpTVn1mRY-143" value="Credit Date" style="ellipse;whiteSpace=wrap;html=1;" vertex="1" parent="1">
          <mxGeometry x="570" y="340" width="80" height="50" as="geometry" />
        </mxCell>
        <mxCell id="9BoYEC_utU_tpTVn1mRY-144" value="" style="endArrow=none;html=1;rounded=0;entryX=1;entryY=1;entryDx=0;entryDy=0;exitX=0.24;exitY=0;exitDx=0;exitDy=0;exitPerimeter=0;" edge="1" parent="1" source="9BoYEC_utU_tpTVn1mRY-143" target="9BoYEC_utU_tpTVn1mRY-140">
          <mxGeometry width="50" height="50" relative="1" as="geometry">
            <mxPoint x="740" y="480" as="sourcePoint" />
            <mxPoint x="790" y="430" as="targetPoint" />
          </mxGeometry>
        </mxCell>
        <mxCell id="9BoYEC_utU_tpTVn1mRY-145" value="O" style="ellipse;whiteSpace=wrap;html=1;aspect=fixed;" vertex="1" parent="1">
          <mxGeometry x="260" y="170" width="40" height="40" as="geometry" />
        </mxCell>
        <mxCell id="9BoYEC_utU_tpTVn1mRY-146" value="" style="endArrow=none;html=1;rounded=0;exitX=0.5;exitY=0;exitDx=0;exitDy=0;entryX=0.5;entryY=1;entryDx=0;entryDy=0;" edge="1" parent="1" source="9BoYEC_utU_tpTVn1mRY-133" target="9BoYEC_utU_tpTVn1mRY-145">
          <mxGeometry width="50" height="50" relative="1" as="geometry">
            <mxPoint x="240" y="310" as="sourcePoint" />
            <mxPoint x="290" y="260" as="targetPoint" />
          </mxGeometry>
        </mxCell>
        <mxCell id="9BoYEC_utU_tpTVn1mRY-147" value="U" style="edgeLabel;html=1;align=center;verticalAlign=middle;resizable=0;points=[];" vertex="1" connectable="0" parent="9BoYEC_utU_tpTVn1mRY-146">
          <mxGeometry x="0.0555" y="-2" relative="1" as="geometry">
            <mxPoint as="offset" />
          </mxGeometry>
        </mxCell>
        <mxCell id="9BoYEC_utU_tpTVn1mRY-148" value="" style="endArrow=none;html=1;rounded=0;entryX=0;entryY=0.75;entryDx=0;entryDy=0;entryPerimeter=0;exitX=0.5;exitY=0;exitDx=0;exitDy=0;" edge="1" parent="1" source="9BoYEC_utU_tpTVn1mRY-130" target="9BoYEC_utU_tpTVn1mRY-145">
          <mxGeometry width="50" height="50" relative="1" as="geometry">
            <mxPoint x="30" y="350" as="sourcePoint" />
            <mxPoint x="80" y="300" as="targetPoint" />
          </mxGeometry>
        </mxCell>
        <mxCell id="9BoYEC_utU_tpTVn1mRY-149" value="U" style="edgeLabel;html=1;align=center;verticalAlign=middle;resizable=0;points=[];" vertex="1" connectable="0" parent="9BoYEC_utU_tpTVn1mRY-148">
          <mxGeometry x="0.1517" relative="1" as="geometry">
            <mxPoint as="offset" />
          </mxGeometry>
        </mxCell>
        <mxCell id="9BoYEC_utU_tpTVn1mRY-150" value="" style="endArrow=none;html=1;rounded=0;entryX=1;entryY=1;entryDx=0;entryDy=0;exitX=0.25;exitY=0;exitDx=0;exitDy=0;" edge="1" parent="1" source="9BoYEC_utU_tpTVn1mRY-140" target="9BoYEC_utU_tpTVn1mRY-145">
          <mxGeometry width="50" height="50" relative="1" as="geometry">
            <mxPoint x="450" y="350" as="sourcePoint" />
            <mxPoint x="500" y="300" as="targetPoint" />
          </mxGeometry>
        </mxCell>
        <mxCell id="9BoYEC_utU_tpTVn1mRY-151" value="U" style="edgeLabel;html=1;align=center;verticalAlign=middle;resizable=0;points=[];" vertex="1" connectable="0" parent="9BoYEC_utU_tpTVn1mRY-150">
          <mxGeometry x="0.1545" relative="1" as="geometry">
            <mxPoint as="offset" />
          </mxGeometry>
        </mxCell>
        <mxCell id="9BoYEC_utU_tpTVn1mRY-152" value="" style="endArrow=none;html=1;rounded=0;entryX=0.393;entryY=1.027;entryDx=0;entryDy=0;entryPerimeter=0;exitX=0.5;exitY=0;exitDx=0;exitDy=0;" edge="1" parent="1" source="9BoYEC_utU_tpTVn1mRY-145" target="9BoYEC_utU_tpTVn1mRY-117">
          <mxGeometry width="50" height="50" relative="1" as="geometry">
            <mxPoint x="290" y="220" as="sourcePoint" />
            <mxPoint x="340" y="170" as="targetPoint" />
          </mxGeometry>
        </mxCell>
        <mxCell id="9BoYEC_utU_tpTVn1mRY-154" value="Voucher" style="rounded=0;whiteSpace=wrap;html=1;" vertex="1" parent="1">
          <mxGeometry x="900" y="40" width="90" height="40" as="geometry" />
        </mxCell>
        <mxCell id="9BoYEC_utU_tpTVn1mRY-192" value="&lt;u&gt;VoucherID&lt;/u&gt;" style="ellipse;whiteSpace=wrap;html=1;" vertex="1" parent="1">
          <mxGeometry x="790" y="120" width="80" height="50" as="geometry" />
        </mxCell>
        <mxCell id="9BoYEC_utU_tpTVn1mRY-193" value="Voucher value" style="ellipse;whiteSpace=wrap;html=1;" vertex="1" parent="1">
          <mxGeometry x="880" y="130" width="80" height="50" as="geometry" />
        </mxCell>
        <mxCell id="9BoYEC_utU_tpTVn1mRY-194" value="Expiry date" style="ellipse;whiteSpace=wrap;html=1;" vertex="1" parent="1">
          <mxGeometry x="970" y="130" width="80" height="50" as="geometry" />
        </mxCell>
        <mxCell id="9BoYEC_utU_tpTVn1mRY-195" value="points" style="ellipse;whiteSpace=wrap;html=1;" vertex="1" parent="1">
          <mxGeometry x="1060" y="120" width="80" height="50" as="geometry" />
        </mxCell>
        <mxCell id="9BoYEC_utU_tpTVn1mRY-197" value="" style="endArrow=none;html=1;rounded=0;entryX=0.12;entryY=1.09;entryDx=0;entryDy=0;entryPerimeter=0;exitX=0.5;exitY=0;exitDx=0;exitDy=0;" edge="1" parent="1" source="9BoYEC_utU_tpTVn1mRY-192" target="9BoYEC_utU_tpTVn1mRY-154">
          <mxGeometry width="50" height="50" relative="1" as="geometry">
            <mxPoint x="850" y="120" as="sourcePoint" />
            <mxPoint x="900" y="70" as="targetPoint" />
          </mxGeometry>
        </mxCell>
        <mxCell id="9BoYEC_utU_tpTVn1mRY-199" value="" style="endArrow=none;html=1;rounded=0;exitX=0.5;exitY=0;exitDx=0;exitDy=0;entryX=0.431;entryY=1.07;entryDx=0;entryDy=0;entryPerimeter=0;" edge="1" parent="1" source="9BoYEC_utU_tpTVn1mRY-193" target="9BoYEC_utU_tpTVn1mRY-154">
          <mxGeometry width="50" height="50" relative="1" as="geometry">
            <mxPoint x="900" y="130" as="sourcePoint" />
            <mxPoint x="950" y="80" as="targetPoint" />
          </mxGeometry>
        </mxCell>
        <mxCell id="9BoYEC_utU_tpTVn1mRY-200" value="" style="endArrow=none;html=1;rounded=0;entryX=0.75;entryY=1;entryDx=0;entryDy=0;exitX=0.34;exitY=0.048;exitDx=0;exitDy=0;exitPerimeter=0;" edge="1" parent="1" source="9BoYEC_utU_tpTVn1mRY-194" target="9BoYEC_utU_tpTVn1mRY-154">
          <mxGeometry width="50" height="50" relative="1" as="geometry">
            <mxPoint x="1020" y="140" as="sourcePoint" />
            <mxPoint x="1070" y="90" as="targetPoint" />
          </mxGeometry>
        </mxCell>
        <mxCell id="9BoYEC_utU_tpTVn1mRY-201" value="" style="endArrow=none;html=1;rounded=0;entryX=0.929;entryY=1.09;entryDx=0;entryDy=0;entryPerimeter=0;" edge="1" parent="1" source="9BoYEC_utU_tpTVn1mRY-195" target="9BoYEC_utU_tpTVn1mRY-154">
          <mxGeometry width="50" height="50" relative="1" as="geometry">
            <mxPoint x="1050" y="100" as="sourcePoint" />
            <mxPoint x="1100" y="50" as="targetPoint" />
          </mxGeometry>
        </mxCell>
        <mxCell id="9BoYEC_utU_tpTVn1mRY-202" value="Shop" style="rounded=0;whiteSpace=wrap;html=1;" vertex="1" parent="1">
          <mxGeometry x="890" y="220" width="90" height="40" as="geometry" />
        </mxCell>
        <mxCell id="9BoYEC_utU_tpTVn1mRY-203" value="&lt;u&gt;ShopID&lt;/u&gt;" style="ellipse;whiteSpace=wrap;html=1;" vertex="1" parent="1">
          <mxGeometry x="810" y="280" width="80" height="50" as="geometry" />
        </mxCell>
        <mxCell id="9BoYEC_utU_tpTVn1mRY-204" value="Name" style="ellipse;whiteSpace=wrap;html=1;" vertex="1" parent="1">
          <mxGeometry x="920" y="280" width="80" height="50" as="geometry" />
        </mxCell>
        <mxCell id="9BoYEC_utU_tpTVn1mRY-205" value="type of products" style="ellipse;whiteSpace=wrap;html=1;" vertex="1" parent="1">
          <mxGeometry x="1010" y="275" width="80" height="50" as="geometry" />
        </mxCell>
        <mxCell id="9BoYEC_utU_tpTVn1mRY-206" value="" style="endArrow=none;html=1;rounded=0;exitX=0.5;exitY=0;exitDx=0;exitDy=0;entryX=0.144;entryY=1.03;entryDx=0;entryDy=0;entryPerimeter=0;" edge="1" parent="1" source="9BoYEC_utU_tpTVn1mRY-203" target="9BoYEC_utU_tpTVn1mRY-202">
          <mxGeometry width="50" height="50" relative="1" as="geometry">
            <mxPoint x="895" y="340" as="sourcePoint" />
            <mxPoint x="945" y="290" as="targetPoint" />
          </mxGeometry>
        </mxCell>
        <mxCell id="9BoYEC_utU_tpTVn1mRY-208" value="" style="endArrow=none;html=1;rounded=0;entryX=0.429;entryY=1.03;entryDx=0;entryDy=0;entryPerimeter=0;exitX=0.5;exitY=0;exitDx=0;exitDy=0;" edge="1" parent="1" source="9BoYEC_utU_tpTVn1mRY-204" target="9BoYEC_utU_tpTVn1mRY-202">
          <mxGeometry width="50" height="50" relative="1" as="geometry">
            <mxPoint x="935" y="340" as="sourcePoint" />
            <mxPoint x="985" y="290" as="targetPoint" />
          </mxGeometry>
        </mxCell>
        <mxCell id="9BoYEC_utU_tpTVn1mRY-209" value="" style="endArrow=none;html=1;rounded=0;entryX=0.75;entryY=1;entryDx=0;entryDy=0;exitX=0.41;exitY=0.048;exitDx=0;exitDy=0;exitPerimeter=0;" edge="1" parent="1" source="9BoYEC_utU_tpTVn1mRY-205" target="9BoYEC_utU_tpTVn1mRY-202">
          <mxGeometry width="50" height="50" relative="1" as="geometry">
            <mxPoint x="1045" y="340" as="sourcePoint" />
            <mxPoint x="1095" y="290" as="targetPoint" />
          </mxGeometry>
        </mxCell>
        <mxCell id="9BoYEC_utU_tpTVn1mRY-211" value="Physical" style="rounded=0;whiteSpace=wrap;html=1;" vertex="1" parent="1">
          <mxGeometry x="990" y="410" width="90" height="40" as="geometry" />
        </mxCell>
        <mxCell id="9BoYEC_utU_tpTVn1mRY-212" value="Working hours" style="ellipse;whiteSpace=wrap;html=1;" vertex="1" parent="1">
          <mxGeometry x="950" y="470" width="80" height="50" as="geometry" />
        </mxCell>
        <mxCell id="9BoYEC_utU_tpTVn1mRY-213" value="Address" style="ellipse;whiteSpace=wrap;html=1;" vertex="1" parent="1">
          <mxGeometry x="1050" y="470" width="80" height="50" as="geometry" />
        </mxCell>
        <mxCell id="9BoYEC_utU_tpTVn1mRY-215" value="" style="endArrow=none;html=1;rounded=0;exitX=0.5;exitY=0;exitDx=0;exitDy=0;entryX=0.144;entryY=1.03;entryDx=0;entryDy=0;entryPerimeter=0;" edge="1" parent="1" source="9BoYEC_utU_tpTVn1mRY-212" target="9BoYEC_utU_tpTVn1mRY-211">
          <mxGeometry width="50" height="50" relative="1" as="geometry">
            <mxPoint x="937.5" y="570" as="sourcePoint" />
            <mxPoint x="987.5" y="520" as="targetPoint" />
          </mxGeometry>
        </mxCell>
        <mxCell id="9BoYEC_utU_tpTVn1mRY-216" value="" style="endArrow=none;html=1;rounded=0;entryX=0.834;entryY=1.05;entryDx=0;entryDy=0;entryPerimeter=0;exitX=0.5;exitY=0;exitDx=0;exitDy=0;" edge="1" parent="1" source="9BoYEC_utU_tpTVn1mRY-213" target="9BoYEC_utU_tpTVn1mRY-211">
          <mxGeometry width="50" height="50" relative="1" as="geometry">
            <mxPoint x="977.5" y="570" as="sourcePoint" />
            <mxPoint x="1027.5" y="520" as="targetPoint" />
          </mxGeometry>
        </mxCell>
        <mxCell id="9BoYEC_utU_tpTVn1mRY-218" value="E-Shop" style="rounded=0;whiteSpace=wrap;html=1;" vertex="1" parent="1">
          <mxGeometry x="800" y="410" width="90" height="40" as="geometry" />
        </mxCell>
        <mxCell id="9BoYEC_utU_tpTVn1mRY-219" value="URL" style="ellipse;whiteSpace=wrap;html=1;" vertex="1" parent="1">
          <mxGeometry x="740" y="470" width="80" height="50" as="geometry" />
        </mxCell>
        <mxCell id="9BoYEC_utU_tpTVn1mRY-220" value="Rating" style="ellipse;whiteSpace=wrap;html=1;" vertex="1" parent="1">
          <mxGeometry x="852.5" y="480" width="80" height="50" as="geometry" />
        </mxCell>
        <mxCell id="9BoYEC_utU_tpTVn1mRY-222" value="" style="endArrow=none;html=1;rounded=0;exitX=0.5;exitY=0;exitDx=0;exitDy=0;entryX=0.144;entryY=1.03;entryDx=0;entryDy=0;entryPerimeter=0;" edge="1" parent="1" source="9BoYEC_utU_tpTVn1mRY-219" target="9BoYEC_utU_tpTVn1mRY-218">
          <mxGeometry width="50" height="50" relative="1" as="geometry">
            <mxPoint x="650" y="560" as="sourcePoint" />
            <mxPoint x="700" y="510" as="targetPoint" />
          </mxGeometry>
        </mxCell>
        <mxCell id="9BoYEC_utU_tpTVn1mRY-223" value="" style="endArrow=none;html=1;rounded=0;entryX=0.75;entryY=1;entryDx=0;entryDy=0;exitX=0.5;exitY=0;exitDx=0;exitDy=0;" edge="1" parent="1" source="9BoYEC_utU_tpTVn1mRY-220" target="9BoYEC_utU_tpTVn1mRY-218">
          <mxGeometry width="50" height="50" relative="1" as="geometry">
            <mxPoint x="690" y="560" as="sourcePoint" />
            <mxPoint x="740" y="510" as="targetPoint" />
          </mxGeometry>
        </mxCell>
        <mxCell id="9BoYEC_utU_tpTVn1mRY-228" value="" style="shape=link;html=1;rounded=0;entryX=0.25;entryY=1;entryDx=0;entryDy=0;exitX=0.5;exitY=0;exitDx=0;exitDy=0;" edge="1" parent="1" source="9BoYEC_utU_tpTVn1mRY-229" target="9BoYEC_utU_tpTVn1mRY-202">
          <mxGeometry width="100" relative="1" as="geometry">
            <mxPoint x="870" y="470" as="sourcePoint" />
            <mxPoint x="930" y="450" as="targetPoint" />
          </mxGeometry>
        </mxCell>
        <mxCell id="9BoYEC_utU_tpTVn1mRY-229" value="D" style="ellipse;whiteSpace=wrap;html=1;aspect=fixed;" vertex="1" parent="1">
          <mxGeometry x="892.5" y="350" width="40" height="40" as="geometry" />
        </mxCell>
        <mxCell id="9BoYEC_utU_tpTVn1mRY-232" value="" style="endArrow=none;html=1;rounded=0;entryX=0;entryY=0.75;entryDx=0;entryDy=0;entryPerimeter=0;exitX=0.5;exitY=0;exitDx=0;exitDy=0;" edge="1" parent="1" source="9BoYEC_utU_tpTVn1mRY-218" target="9BoYEC_utU_tpTVn1mRY-229">
          <mxGeometry width="50" height="50" relative="1" as="geometry">
            <mxPoint x="730" y="470" as="sourcePoint" />
            <mxPoint x="780" y="420" as="targetPoint" />
          </mxGeometry>
        </mxCell>
        <mxCell id="9BoYEC_utU_tpTVn1mRY-257" value="U" style="edgeLabel;html=1;align=center;verticalAlign=middle;resizable=0;points=[];" vertex="1" connectable="0" parent="9BoYEC_utU_tpTVn1mRY-232">
          <mxGeometry x="-0.0587" y="1" relative="1" as="geometry">
            <mxPoint as="offset" />
          </mxGeometry>
        </mxCell>
        <mxCell id="9BoYEC_utU_tpTVn1mRY-233" value="" style="endArrow=none;html=1;rounded=0;entryX=1;entryY=1;entryDx=0;entryDy=0;exitX=0.5;exitY=0;exitDx=0;exitDy=0;" edge="1" parent="1" source="9BoYEC_utU_tpTVn1mRY-211" target="9BoYEC_utU_tpTVn1mRY-229">
          <mxGeometry width="50" height="50" relative="1" as="geometry">
            <mxPoint x="990" y="480" as="sourcePoint" />
            <mxPoint x="1040" y="430" as="targetPoint" />
          </mxGeometry>
        </mxCell>
        <mxCell id="9BoYEC_utU_tpTVn1mRY-256" value="U" style="edgeLabel;html=1;align=center;verticalAlign=middle;resizable=0;points=[];" vertex="1" connectable="0" parent="9BoYEC_utU_tpTVn1mRY-233">
          <mxGeometry x="0.2967" relative="1" as="geometry">
            <mxPoint as="offset" />
          </mxGeometry>
        </mxCell>
        <mxCell id="9BoYEC_utU_tpTVn1mRY-236" value="&lt;u&gt;TechnicalID&lt;/u&gt;" style="ellipse;whiteSpace=wrap;html=1;" vertex="1" parent="1">
          <mxGeometry x="120" y="510" width="80" height="50" as="geometry" />
        </mxCell>
        <mxCell id="9BoYEC_utU_tpTVn1mRY-237" value="issue description" style="ellipse;whiteSpace=wrap;html=1;" vertex="1" parent="1">
          <mxGeometry x="230" y="520" width="80" height="50" as="geometry" />
        </mxCell>
        <mxCell id="9BoYEC_utU_tpTVn1mRY-238" value="priority level" style="ellipse;whiteSpace=wrap;html=1;" vertex="1" parent="1">
          <mxGeometry x="330" y="520" width="80" height="50" as="geometry" />
        </mxCell>
        <mxCell id="9BoYEC_utU_tpTVn1mRY-239" value="status" style="ellipse;whiteSpace=wrap;html=1;" vertex="1" parent="1">
          <mxGeometry x="450" y="520" width="80" height="50" as="geometry" />
        </mxCell>
        <mxCell id="9BoYEC_utU_tpTVn1mRY-240" value="Open" style="ellipse;whiteSpace=wrap;html=1;" vertex="1" parent="1">
          <mxGeometry x="380" y="600" width="80" height="50" as="geometry" />
        </mxCell>
        <mxCell id="9BoYEC_utU_tpTVn1mRY-241" value="" style="endArrow=none;html=1;rounded=0;exitX=0.5;exitY=0;exitDx=0;exitDy=0;entryX=0;entryY=1;entryDx=0;entryDy=0;" edge="1" parent="1" source="9BoYEC_utU_tpTVn1mRY-240" target="9BoYEC_utU_tpTVn1mRY-239">
          <mxGeometry width="50" height="50" relative="1" as="geometry">
            <mxPoint x="330" y="729" as="sourcePoint" />
            <mxPoint x="493" y="620" as="targetPoint" />
          </mxGeometry>
        </mxCell>
        <mxCell id="9BoYEC_utU_tpTVn1mRY-242" value="In progress" style="ellipse;whiteSpace=wrap;html=1;" vertex="1" parent="1">
          <mxGeometry x="460" y="600" width="80" height="50" as="geometry" />
        </mxCell>
        <mxCell id="9BoYEC_utU_tpTVn1mRY-243" value="" style="endArrow=none;html=1;rounded=0;exitX=0.5;exitY=0;exitDx=0;exitDy=0;entryX=0.5;entryY=1;entryDx=0;entryDy=0;" edge="1" parent="1" source="9BoYEC_utU_tpTVn1mRY-242" target="9BoYEC_utU_tpTVn1mRY-239">
          <mxGeometry width="50" height="50" relative="1" as="geometry">
            <mxPoint x="455" y="729" as="sourcePoint" />
            <mxPoint x="520" y="620" as="targetPoint" />
          </mxGeometry>
        </mxCell>
        <mxCell id="9BoYEC_utU_tpTVn1mRY-244" value="Resolved" style="ellipse;whiteSpace=wrap;html=1;" vertex="1" parent="1">
          <mxGeometry x="540" y="600" width="80" height="50" as="geometry" />
        </mxCell>
        <mxCell id="9BoYEC_utU_tpTVn1mRY-245" value="" style="endArrow=none;html=1;rounded=0;exitX=0.5;exitY=0;exitDx=0;exitDy=0;" edge="1" parent="1" source="9BoYEC_utU_tpTVn1mRY-244" target="9BoYEC_utU_tpTVn1mRY-239">
          <mxGeometry width="50" height="50" relative="1" as="geometry">
            <mxPoint x="530" y="719" as="sourcePoint" />
            <mxPoint x="693" y="610" as="targetPoint" />
          </mxGeometry>
        </mxCell>
        <mxCell id="9BoYEC_utU_tpTVn1mRY-246" value="Closed" style="ellipse;whiteSpace=wrap;html=1;" vertex="1" parent="1">
          <mxGeometry x="620" y="600" width="80" height="50" as="geometry" />
        </mxCell>
        <mxCell id="9BoYEC_utU_tpTVn1mRY-247" value="" style="endArrow=none;html=1;rounded=0;exitX=0.5;exitY=0;exitDx=0;exitDy=0;entryX=1;entryY=0.5;entryDx=0;entryDy=0;" edge="1" parent="1" source="9BoYEC_utU_tpTVn1mRY-246" target="9BoYEC_utU_tpTVn1mRY-239">
          <mxGeometry width="50" height="50" relative="1" as="geometry">
            <mxPoint x="620" y="728.5" as="sourcePoint" />
            <mxPoint x="783" y="619.5" as="targetPoint" />
          </mxGeometry>
        </mxCell>
        <mxCell id="9BoYEC_utU_tpTVn1mRY-248" value="" style="endArrow=none;html=1;rounded=0;entryX=0;entryY=0.75;entryDx=0;entryDy=0;exitX=0.5;exitY=0;exitDx=0;exitDy=0;" edge="1" parent="1" source="9BoYEC_utU_tpTVn1mRY-236" target="9BoYEC_utU_tpTVn1mRY-253">
          <mxGeometry width="50" height="50" relative="1" as="geometry">
            <mxPoint x="190" y="560" as="sourcePoint" />
            <mxPoint x="270" y="460" as="targetPoint" />
          </mxGeometry>
        </mxCell>
        <mxCell id="9BoYEC_utU_tpTVn1mRY-249" value="" style="endArrow=none;html=1;rounded=0;exitX=0.42;exitY=0.072;exitDx=0;exitDy=0;exitPerimeter=0;entryX=0.176;entryY=1.01;entryDx=0;entryDy=0;entryPerimeter=0;" edge="1" parent="1" source="9BoYEC_utU_tpTVn1mRY-237" target="9BoYEC_utU_tpTVn1mRY-253">
          <mxGeometry width="50" height="50" relative="1" as="geometry">
            <mxPoint x="240" y="570" as="sourcePoint" />
            <mxPoint x="292.5" y="480" as="targetPoint" />
          </mxGeometry>
        </mxCell>
        <mxCell id="9BoYEC_utU_tpTVn1mRY-250" value="" style="endArrow=none;html=1;rounded=0;entryX=0.616;entryY=0.99;entryDx=0;entryDy=0;exitX=0.5;exitY=0;exitDx=0;exitDy=0;entryPerimeter=0;" edge="1" parent="1" source="9BoYEC_utU_tpTVn1mRY-238" target="9BoYEC_utU_tpTVn1mRY-253">
          <mxGeometry width="50" height="50" relative="1" as="geometry">
            <mxPoint x="390" y="560" as="sourcePoint" />
            <mxPoint x="337.5" y="480" as="targetPoint" />
          </mxGeometry>
        </mxCell>
        <mxCell id="9BoYEC_utU_tpTVn1mRY-251" value="" style="endArrow=none;html=1;rounded=0;exitX=0.5;exitY=0;exitDx=0;exitDy=0;entryX=1;entryY=0.75;entryDx=0;entryDy=0;" edge="1" parent="1" source="9BoYEC_utU_tpTVn1mRY-239" target="9BoYEC_utU_tpTVn1mRY-253">
          <mxGeometry width="50" height="50" relative="1" as="geometry">
            <mxPoint x="410" y="550" as="sourcePoint" />
            <mxPoint x="360" y="470" as="targetPoint" />
          </mxGeometry>
        </mxCell>
        <mxCell id="9BoYEC_utU_tpTVn1mRY-253" value="Technical Support" style="shape=ext;margin=3;double=1;whiteSpace=wrap;html=1;align=center;" vertex="1" parent="1">
          <mxGeometry x="270" y="440" width="100" height="40" as="geometry" />
        </mxCell>
      </root>
    </mxGraphModel>
  </diagram>
</mxfile>
